<?xml version="1.0" encoding="UTF-8" standalone="no"?>
<!-- Created with Inkscape (http://www.inkscape.org/) -->

<svg
   version="1.1"
   id="svg2"
   width="1600"
   height="1600"
   viewBox="0 0 1600 1600"
   xmlns="http://www.w3.org/2000/svg"
   xmlns:svg="http://www.w3.org/2000/svg">
  <defs
     id="defs6" />
  <g
     id="g8">
    <path
       style="fill:#ffffff"
       d="m 870.7626,1543.4862 c -8.51476,-3.1276 -15.84389,-10.1915 -19.6088,-18.8992 -0.69273,-1.6022 -1.52284,-5.7332 -1.8447,-9.1799 -0.86923,-9.3083 1.3281,-14.729 12.1232,-29.9071 31.03682,-43.6384 57.27782,-88.0894 82.64691,-140 55.024,-112.5908 88.85789,-229.7897 99.30879,-344 2.4117,-26.35592 2.7384,-32.03962 3.5143,-61.12511 0.6867,-25.74144 0.9139,-28.25757 2.9685,-32.87489 5.8153,-13.06883 21.5122,-21.88462 34.5777,-19.41979 10.4688,1.97496 19.1559,8.40951 23.6322,17.50441 2.398,4.87217 2.4188,5.17469 2.3598,34.41538 -0.1578,78.2717 -13.3467,164.8192 -38.5546,253 -29.8758,104.5095 -80.48971,214.6825 -139.42913,303.5 -24.23803,36.525 -30.14591,43.3621 -40.68015,47.0788 -5.02816,1.7741 -16.06471,1.7254 -21.01402,-0.093 z m -259.49142,-3.0261 c -9.59345,-2.5838 -16.14609,-8.0533 -20.91759,-17.4601 -2.36658,-4.6656 -2.78826,-6.7137 -2.77953,-13.5 0.0177,-13.7805 3.40129,-18.889 21.62596,-32.651 117.2522,-88.5411 208.19393,-241.1793 255.21,-428.349 17.704,-70.47916 25.68862,-129.7383 23.51512,-174.52135 C 885.97904,833.88088 879.42843,804.03496 866.96941,778.5 858.25538,760.64048 853.15578,754.42617 836,740.76101 c -7.97438,-6.35185 -12,-14.46021 -12,-24.17024 0,-9.43609 2.13662,-15.41418 7.73443,-21.64029 8.48035,-9.43218 20.596,-13.03129 32.35737,-9.61217 13.39495,3.89402 37.62482,26.33411 51.4631,47.66169 31.86087,49.10404 44.05081,129.88161 32.89784,218 -13.77675,108.8486 -53.97598,236.1642 -106.8796,338.5 C 788.78897,1391.6048 723.92045,1471.5732 647,1529.3654 c -15.87515,11.9274 -23.66067,14.345 -35.72882,11.0947 z M 396,1455.3322 c -8.95089,-3.1276 -15.60918,-9.5134 -19.63586,-18.8322 -2.59149,-5.9974 -2.34981,-17.6284 0.5006,-24.0919 3.96309,-8.9866 9.60861,-13.3662 28.63526,-22.2144 63.2859,-29.4304 114.47396,-65.1054 163.06765,-113.6481 28.76075,-28.7306 50.43685,-54.9811 74.15778,-89.8075 8.07007,-11.8483 12.52609,-15.5925 21.74679,-18.273 10.97508,-3.1906 22.1351,-0.015 30.70161,8.737 6.54872,6.6902 9.15927,13.9244 8.58775,23.7979 -0.54213,9.3657 -2.20721,12.7323 -15.91485,32.1777 -23.6612,33.5655 -45.58414,59.6332 -74.30997,88.3591 -50.52489,50.5248 -104.88785,89.485 -168.03676,120.4265 -11,5.3898 -23.00175,10.9779 -26.67056,12.4181 -7.75848,3.0457 -15.86746,3.3834 -22.82944,0.9508 z m 730.698,-10.7761 c -12.783,-4.5596 -21.0585,-16.3557 -21.0858,-30.0561 -0.012,-6.0374 0.782,-9.2002 5.7743,-23 13.4575,-37.1997 27.9953,-83.7065 41.6069,-133.102 3.1982,-11.6061 6.7357,-22.9068 7.861,-25.1126 2.9012,-5.6868 11.2147,-12.8155 17.3044,-14.8381 3.6339,-1.207 7.1456,-1.5595 12.2202,-1.2267 12.228,0.8021 22.2766,7.6129 27.3336,18.5264 3.8632,8.3372 3.9283,13.9182 0.3241,27.753 -13.6643,52.4495 -44.958,150.793 -52.8529,166.0957 -2.8187,5.4634 -8.7182,10.8391 -15.1838,13.8357 -6.3364,2.9367 -16.8053,3.442 -23.302,1.1247 z M 213.28604,1300.6262 c -23.94649,-7.9212 -31.21376,-35.8289 -13.85126,-53.1914 7.51628,-7.5163 12.37218,-9.0058 32.06522,-9.8357 35.70506,-1.5046 62.34944,-6.2435 93.74048,-16.6724 89.50295,-29.7353 171.82489,-101.6839 228.75144,-199.9267 20.03033,-34.56798 26.07072,-49.39541 54.11993,-132.849 24.88516,-74.03972 32.98904,-95.41889 46.03065,-121.43528 20.24419,-40.38461 46.51573,-69.83332 75.3575,-84.4709 14.18291,-7.19801 27.69524,-5.20958 38.5825,5.67768 7.21675,7.21675 9.35207,13.09005 8.70769,23.95087 -0.72872,12.28243 -4.93802,18.68857 -17.67412,26.89833 -19.96131,12.86717 -35.479,32.94232 -52.02426,67.30348 -11.01484,22.87561 -16.07835,36.54044 -37.58301,101.42482 -11.11949,33.55 -23.52509,69.31424 -27.568,79.47608 C 617.2772,1048.9679 576.96355,1111.2126 528.58404,1162 444.05064,1250.7407 343.70168,1298.2711 234,1301.53 c -12.51301,0.3717 -17.51824,0.1533 -20.71396,-0.9038 z m 1113.98856,-56.2803 c -6.2913,-2.2277 -14.0737,-9.7419 -17.4239,-16.8235 -3.7348,-7.8946 -3.8562,-16.2223 -0.3968,-27.2208 8.7796,-27.9135 18.0045,-75.1174 23.5102,-120.3016 9.5593,-78.4525 10.4863,-169.9134 2.5085,-247.5 -7.7112,-74.99371 -24.855,-147.90226 -49.9536,-212.44101 C 1243.4935,511.9939 1177.8483,428.97546 1090.3883,373.28602 1023.1345,330.46268 941.0033,302.72629 847,291.09175 827.1827,288.63901 796.33253,286 787.47723,286 774.86157,286 763.69744,279.19325 758.30615,268.21444 755.89956,263.31367 755.5,261.28969 755.5,254 c 0,-7.27059 0.40206,-9.31872 2.77978,-14.16054 3.07609,-6.26392 8.38598,-11.59164 14.92516,-14.97527 5.59481,-2.89497 16.52107,-3.47133 36.91616,-1.94733 136.42699,10.19435 253.1472,51.08205 346.0701,121.23017 30.3872,22.93948 65.3652,56.14507 88.8556,84.35297 76.823,92.25133 124.7702,203.97238 147.8487,344.5 22.5356,137.22173 16.6545,298.6098 -15.4099,422.8739 -5.4778,21.2292 -9.3365,32.2481 -13.1175,37.4582 -3.735,5.1468 -10.6647,10.0999 -16.3336,11.6748 -5.1053,1.4183 -15.8542,1.0761 -20.7599,-0.661 z m -119.9181,-98.3676 c -6.7258,-2.6657 -13.2246,-8.4826 -16.7845,-15.0233 -4.3933,-8.0719 -4.4216,-14.4584 -0.1775,-39.955 6.3959,-38.4232 10.5153,-72.464 13.7955,-114 1.6205,-20.52047 1.6226,-90.18643 0,-109.5 -11.0197,-131.46819 -52.648,-233.36131 -126.19,-308.88244 -27.4284,-28.16654 -61.5014,-53.75869 -92.0665,-69.15105 -9.09273,-4.57902 -15.17763,-10.22767 -18.66303,-17.325 -3.6532,-7.43902 -3.91622,-19.07992 -0.59463,-26.31718 5.25859,-11.45767 17.20233,-19.32715 29.32416,-19.32107 7.3763,0.004 14.6182,3.04378 34.5891,14.52019 77.3812,44.46771 142.01,116.70961 182.4808,203.97655 47.4949,102.41315 65.1945,220.79615 53.3755,357 -4.3829,50.5092 -14.3176,117.6298 -18.8945,127.6554 -2.8509,6.2447 -8.9221,12.3478 -15.3147,15.395 -6.7913,3.2373 -17.9982,3.6553 -24.8797,0.9279 z m -1091.03232,-4.4178 c -5.90046,-1.845 -10.66763,-5.0077 -15.04685,-9.9828 -4.998572,-5.6787 -7.288438,-12.3348 -7.282276,-21.168 0.0041,-5.89 0.518914,-8.1188 3.041229,-13.1664 3.489437,-6.983 9.195827,-12.5724 15.841317,-15.5165 3.88736,-1.7222 7.80275,-2.1767 24.6224,-2.8584 51.45464,-2.0853 86.60254,-9.2484 122,-24.8632 63.58693,-28.0501 111.66188,-79.00723 162.56139,-172.30733 10.628,-19.48138 17.57028,-24.67052 33.02889,-24.6881 7.59738,-0.009 9.29999,0.34488 14.73057,3.05857 13.12612,6.5592 20.2652,20.97751 17.27967,34.89854 -2.57048,11.98576 -38.55892,71.92414 -60.90644,101.43905 C 407.32033,1021.333 381.8103,1048.582 362,1064.9761 c -55.2491,45.7217 -121.1192,70.8364 -201.94989,76.9985 -18.27783,1.3935 -38.55945,1.2014 -43.72593,-0.4141 z m 603.60517,-11.8729 c -9.54712,-2.689 -16.5906,-8.4747 -21.53291,-17.6876 -1.45682,-2.7156 -1.87971,-5.629 -1.88702,-13 -0.009,-9.209 0.13283,-9.8064 4.63381,-19.5 27.47396,-59.17 52.43655,-149.18654 59.34458,-214 1.97285,-18.50996 3.38516,-23.03017 9.22507,-29.52555 6.18677,-6.88118 12.86832,-10.16089 21.90808,-10.75382 13.51107,-0.88622 24.25168,5.20167 30.37904,17.21913 3.30191,6.47598 3.49055,7.3794 3.33295,15.96237 -0.51802,28.21153 -14.63074,98.12622 -30.39914,150.59787 -11.6253,38.6849 -33.85217,96.8684 -41.15044,107.72 -7.09934,10.5558 -22.0647,16.2882 -33.85402,12.9676 z M 80.839265,984.96482 c -18.089404,-1.1425 -26.831741,-6.10786 -33.068721,-18.78197 -2.844527,-5.78034 -3.262761,-7.62538 -3.210792,-14.16445 0.0742,-9.33696 3.330512,-16.81899 9.992485,-22.95979 8.731817,-8.0487 9.867339,-8.26561 44.447763,-8.49033 23.62548,-0.15353 32.36514,-0.56846 38.77501,-1.84091 55.04283,-10.92678 94.06771,-39.3117 142.60911,-103.72737 18.90925,-25.09307 35.20197,-50.26309 73.85574,-114.09702 48.85203,-80.67565 82.43051,-131.02967 91.99912,-137.96114 9.53309,-6.90573 20.92836,-7.55626 32.55404,-1.85842 11.63005,5.69998 17.86821,16.82464 16.98829,30.29562 -0.53484,8.18809 -2.49288,12.61399 -10.22879,23.12096 -17.56151,23.85217 -35.80949,52.39681 -73.61016,115.14574 C 364.37973,808.59944 347.22508,834.58904 320.95048,867.5 262.34185,940.91183 195.38553,979.38866 116.5,984.98861 c -15.22711,1.08094 -18.200624,1.07896 -35.660735,-0.0238 z M 1509.0907,868.17636 c -5.962,-2.26666 -13.6491,-9.37149 -16.7408,-15.47253 -1.9876,-3.92247 -3.1758,-9.48666 -5.4683,-25.6076 -9.3682,-65.87768 -27.6965,-140.7903 -50.03,-204.48563 -41.5362,-118.46118 -97.5584,-213.24081 -167.3516,-283.12889 -19.413,-19.4394 -33.4894,-31.61687 -56.3266,-48.7281 -18.5488,-13.89809 -22.2912,-17.91129 -24.8223,-26.61792 -4.4274,-15.22946 4.7794,-33.58481 19.3328,-38.54366 7.0914,-2.41626 16.7556,-2.06626 22.9809,0.83226 11.194,5.21197 43.1013,30.09832 69.7397,54.39402 68.8027,62.75185 130.8326,154.50451 174.8833,258.68169 33.3876,78.95977 58.7486,168.34959 72.1184,254.19591 4.0138,25.77215 5.8537,42.47003 5.2865,47.97902 -1.1272,10.94992 -7.6523,20.14997 -17.936,25.28879 -5.2344,2.61563 -7.1277,3.02608 -13.6664,2.96264 -4.5092,-0.0437 -9.3802,-0.75412 -11.9996,-1.75 z M 60.324175,825.62468 C 37.32863,818.08103 29.861887,789.23394 46.612801,772.65202 c 4.469811,-4.42472 8.557476,-6.69477 17.521739,-9.73054 35.544505,-12.03723 72.38102,-42.44116 107.94196,-89.09257 12.75754,-16.73626 18.20901,-22.03636 25.51802,-24.80945 C 219.18064,640.82953 241,655.66247 241,678.52679 c 0,9.35116 -2.45291,14.62971 -13.54763,29.15382 -45.35182,59.37014 -86.43301,93.34515 -137.174431,113.44614 -14.217806,5.63232 -22.640366,6.89707 -29.953764,4.49793 z m 986.032325,-16.6464 c -6.6461,-2.63413 -13.8386,-9.0074 -16.7645,-14.85493 C 1028.3196,791.58051 1026.0185,785.675 1024.4782,781 1007.4033,729.17288 975.16002,680.65699 938,650.87761 905.90285,625.15552 866.60417,609.56286 822.19114,604.92776 c -15.05705,-1.5714 -59.19156,-0.65885 -72.48849,1.49882 -42.16032,6.84128 -74.57237,20.87239 -106.04448,45.90643 C 612.00491,677.51114 584.50001,713.44284 552.05579,772 540.81763,792.28327 537.24097,796.7508 529,800.79855 c -7.78985,3.82616 -19.0546,3.86315 -27,0.0887 -11.77316,-5.5929 -18.38674,-15.98125 -18.45822,-28.99349 -0.0396,-7.20529 0.2324,-8.15423 5.15899,-18 2.86042,-5.71654 9.20666,-17.36871 14.10277,-25.89371 25.47515,-44.35686 47.71398,-74.57153 75.14746,-102.09868 33.8334,-33.94893 68.92736,-55.90499 112.549,-70.41475 71.49925,-23.78261 154.94313,-21.10379 222.35249,7.13822 78.44714,32.86644 138.84601,102.03288 171.81141,196.75166 5.2028,14.94889 5.8797,21.8468 2.9779,30.34379 -2.2646,6.6312 -9.3508,14.58566 -16.0342,17.9988 -7.0514,3.60109 -17.9687,4.14553 -25.2511,1.25924 z M 267.20496,605.16644 c -6.61011,-2.3589 -11.76372,-6.42314 -15.92803,-12.56116 -4.02117,-5.92704 -5.26446,-10.31588 -5.27056,-18.60528 -0.007,-9.14482 2.11557,-13.11095 26.75538,-50 C 318.05,456.19751 347.70769,419.17833 390.14416,377.48152 464.05318,304.86071 544.76161,260.70588 645.94308,237.53631 654.43678,235.59134 663.08239,234 665.15557,234 c 9.92947,0 21.66746,7.86663 26.53828,17.78556 2.41215,4.91211 2.80418,6.90788 2.79212,14.21444 -0.0121,7.30819 -0.39763,9.23143 -2.74991,13.71657 -3.27302,6.24076 -8.36276,11.54218 -13.6911,14.26049 -2.14606,1.09484 -11.92161,3.8467 -21.72344,6.11525 -57.48437,13.30426 -104.43577,33.10241 -150.32194,63.38673 -26.15623,17.26281 -44.33416,32.07935 -69.34366,56.52096 -39.1663,38.27694 -71.04677,79.00299 -116.63762,149 -8.41838,12.925 -16.57089,25.11388 -18.11668,27.0864 -1.54579,1.97252 -5.6189,5.08324 -9.05134,6.91272 -7.99555,4.26158 -17.52102,5.06659 -25.64532,2.16732 z M 110.24331,564.96372 C 98.42838,559.05973 92.539451,549.60477 92.514954,536.5 c -0.02081,-11.13319 2.962859,-17.06411 13.184056,-26.20718 9.30047,-8.31945 24.67459,-28.6762 55.35328,-73.29282 33.68042,-48.9821 50.50015,-71.95937 75.03163,-102.5 48.68433,-60.60989 100.26535,-110.78833 155.74058,-151.50569 18.40103,-13.50588 23.37263,-15.69925 33.08894,-14.59817 16.99532,1.92594 29.4707,15.54274 29.36432,32.05097 -0.0863,13.39813 -4.09253,19.25947 -22.12726,32.37374 -31.17104,22.66659 -56.33408,44.52019 -86.16551,74.83306 -46.46786,47.21778 -73.16118,81.03548 -143.32998,181.58442 -32.03247,45.90118 -36.21665,51.30523 -49.41533,63.82208 -12.49296,11.84759 -18.55986,14.93768 -29.32996,14.9388 -6.45395,6.7e-4 -8.49992,-0.45377 -13.66641,-3.03549 z m 431.3465,-41.44093 c -7.50756,-3.08643 -13.04772,-8.3995 -16.70765,-16.02279 -2.3942,-4.98691 -2.88072,-7.28237 -2.88137,-13.59484 -0.002,-14.56894 5.81315,-21.89277 32.05799,-40.37843 C 570.99911,441.59474 584.30027,433.596 603,424.09562 c 42.60411,-21.64499 86.38143,-34.5499 138,-40.68037 18.36113,-2.18065 68.31729,-3.00607 89.24444,-1.47457 30.72141,2.24827 57.94992,6.51781 65.44793,10.2625 10.81273,5.40013 18.33865,19.38922 16.84832,31.31743 -1.99559,15.97221 -15.55052,28.50042 -30.80142,28.46838 -2.8816,-0.006 -12.72055,-1.10313 -21.86433,-2.43795 -43.62136,-6.3679 -95.56174,-5.9998 -136.37494,0.96648 -52.09505,8.89195 -99.7929,29.92148 -142.4746,62.81568 -5.76104,4.43995 -12.96104,9.09564 -16,10.34598 -7.51209,3.09074 -15.66955,3.03631 -23.43559,-0.15639 z M 1083,202.66986 c -3.025,-1.32181 -12.475,-5.79977 -21,-9.95101 -58.4919,-28.48255 -125.6103,-48.63974 -193.5,-58.11243 -66.45214,-9.27211 -133.68764,-9.64131 -193.28755,-1.06136 -48.80236,7.02555 -89.38269,18.60042 -140.15012,39.97553 -5.67058,2.38754 -7.39834,2.65774 -14.5,2.26762 -9.38597,-0.5156 -14.49248,-2.71836 -20.70586,-8.93174 -11.82976,-11.82976 -12.43647,-30.58946 -1.41091,-43.62608 3.97436,-4.69929 8.91264,-7.29896 29.63424,-15.60044 C 610.32359,74.681453 698.6185,60.020478 791.85234,63.831692 834.92385,65.592371 864.12081,68.56567 902,75.048681 c 68.69774,11.757594 137.1674,33.977939 196.891,63.896729 16.3508,8.19097 21.3227,12.23603 25.2644,20.55459 5.4191,11.43665 3.4017,25.31297 -5.0478,34.72032 -6.362,7.08313 -12.7256,10.03502 -22.6076,10.48696 -6.765,0.30939 -8.8491,-0.005 -13.5,-2.03742 z"
       id="path172" />
  </g>
</svg>
